{"title":"A Haunting In Salem 2011 720p Bdrip.m2ts AC3","uid":6791389,"size":4965697582,"categoryP":"video","categoryS":"hd___movies","magnet":"?xt=urn:btih:a3cf99568fc3c37d21f4761262df35088893bb42&amp;dn=A+Haunting+In+Salem+2011+720p+Bdrip.m2ts+AC3&amp;tr=udp%3A%2F%2Ftracker.openbittorrent.com%3A80&amp;tr=udp%3A%2F%2Fopen.demonii.com%3A1337&amp;tr=udp%3A%2F%2Ftracker.coppersurfer.tk%3A6969&amp;tr=udp%3A%2F%2Fexodus.desync.com%3A6969","seeders":0,"leechers":0,"uploader":"HARD ROCK","files":-1,"time":1320278473,"description":"Movies : Horror : HD 720p : English\nA Haunting In Salem\nEnglish\n2011\n\n    General\n    ID : 1 (0x1)\n    Complete name : A.Haunting.In.Salem.2011.720p.BluRay.x264.AC3-RIPPER\\A Haunting In Salem.m2ts\n    Format : BDAV\n    Format/Info : Blu-ray Video\n    File size : 4.62 GiB\n    Duration : 1h 25mn\n    Overall bit rate mode : Variable\n    Overall bit rate : 7 714 Kbps\n    Maximum Overall bit rate : 35.5 Mbps\n\n    Video\n    ID : 4113 (0x1011)\n    Menu ID : 1 (0x1)\n    Format : AVC\n    Format/Info : Advanced Video Codec\n    Format profile : &lt;a class=&quot;__cf_email__&quot; href=&quot;/cdn-cgi/l/email-protection&quot; data-cfemail=&quot;b1f9d8d6d9f1fd859f80&quot;&gt;[email&amp;#160;protected]&lt;/a&gt;&lt;script cf-hash='f9e31' type=&quot;text/javascript&quot;&gt;\n/* &lt;![CDATA[ */!function(){try{var t=&quot;currentScript&quot;in document?document.currentScript:function(){for(var t=document.getElementsByTagName(&quot;script&quot;),e=t.length;e--;)if(t[e].getAttribute(&quot;cf-hash&quot;))return t[e]}();if(t&amp;&amp;t.previousSibling){var e,r,n,i,c=t.previousSibling,a=c.getAttribute(&quot;data-cfemail&quot;);if(a){for(e=&quot;&quot;,r=parseInt(a.substr(0,2),16),n=2;a.length-n;n+=2)i=parseInt(a.substr(n,2),16)^r,e+=String.fromCharCode(i);e=document.createTextNode(e),c.parentNode.replaceChild(e,c)}}}catch(u){}}();/* ]]&gt; */&lt;/script&gt;\n    Format settings, CABAC : Yes\n    Format settings, ReFrames : 3 frames\n    Codec ID : 27\n    Duration : 1h 25mn\n    Bit rate mode : Variable\n    Bit rate : 6 649 Kbps\n    Maximum bit rate : 25.0 Mbps\n    Width : 1 280 pixels\n    Height : 720 pixels\n    Display aspect ratio : 16:9\n    Frame rate : 23.976 fps\n    Color space : YUV\n    Chroma subsampling : 4:2:0\n    Bit depth : 8 bits\n    Scan type : Progressive\n    Bits/(Pixel*Frame) : 0.301\n    Stream size : 4.05 GiB (88%)\n    Writing library : x264 core 114 r1924 08d04a4\n    Encoding settings : cabac=1 / ref=3 / deblock=1:0:0 / analyse=0x3:0x133 / me=umh / subme=7 / psy=1 / psy_rd=1.00:0.00 / mixed_ref=1 / me_range=16 / chroma_me=1 / trellis=1 / 8x8dct=1 / cqm=0 / deadzone=21,11 / fast_pskip=1 / chroma_qp_offset=-2 / threads=9 / sliced_threads=0 / nr=0 / decimate=1 / interlaced=0 / constrained_intra=0 / bframes=3 / b_pyramid=0 / b_adapt=1 / b_bias=0 / direct=1 / weightb=1 / open_gop=0 / weightp=2 / keyint=240 / keyint_min=24 / scenecut=40 / intra_refresh=0 / rc_lookahead=40 / rc=2pass / mbtree=1 / bitrate=6649 / ratetol=1.0 / qcomp=0.60 / qpmin=0 / qpmax=69 / qpstep=4 / cplxblur=20.0 / qblur=0.5 / vbv_maxrate=25000 / vbv_bufsize=25000 / nal_hrd=vbr / ip_ratio=1.40 / aq=1:1.00\n    Language : English\n\n    Audio\n    ID : 4352 (0x1100)\n    Menu ID : 1 (0x1)\n    Format : AC-3\n    Format/Info : Audio Coding 3\n    Mode extension : CM (complete main)\n    Codec ID : 129\n    Duration : 1h 25mn\n    Bit rate mode : Constant\n    Bit rate : 640 Kbps\n    Channel(s) : 6 channels\n    Channel positions : Front: L C R, Side: L R, LFE\n    Sampling rate : 48.0 KHz\n    Bit depth : 16 bits\n    Compression mode : Lossy\n    Stream size : 393 MiB (8%)\n    Language : English\n    second item","torrent":{"xt":"urn:btih:a3cf99568fc3c37d21f4761262df35088893bb42","amp;dn":"A+Haunting+In+Salem+2011+720p+Bdrip.m2ts+AC3","amp;tr":["udp%3A%2F%2Ftracker.openbittorrent.com%3A80","udp%3A%2F%2Fopen.demonii.com%3A1337","udp%3A%2F%2Ftracker.coppersurfer.tk%3A6969","udp%3A%2F%2Fexodus.desync.com%3A6969"],"infoHash":"a3cf99568fc3c37d21f4761262df35088893bb42","infoHashBuffer":{"type":"Buffer","data":[163,207,153,86,143,195,195,125,33,244,118,18,98,223,53,8,136,147,187,66]},"announce":[],"urlList":[]}}